<svg xmlns="http://www.w3.org/2000/svg" xml:space="preserve" viewBox="0 0 38 38">
  <path fill="#A33917" d="m36.853 16.833-.78 2.403c-.889 2.734-2.545 3.917-3.779 4.429-.327.136-.67.242-1.023.321 1.359 1.523 2.045 3.738 1.095 6.663l-.779 2.404-2.555.749-1.501 2.195h-2.529c-3.075 0-4.969-1.337-5.999-3.101-1.029 1.764-2.924 3.102-6.001 3.102h-2.528l-1.5-2.195-2.553-.748-.781-2.403c-.953-2.932-.256-5.145 1.108-6.67a6.145 6.145 0 0 1-1.038-.317c-1.233-.511-2.891-1.693-3.779-4.426l-.781-2.404 1.625-2.106-.078-2.658 2.045-1.486C6.39 9.387 7.961 8.978 9.379 9.07c.013.694.115 1.381.292 2.052-1.049-.183-2.312.032-3.755 1.081l-1.191.865.067 2.317-1.417 1.835.455 1.4c.524 1.612 1.413 2.688 2.642 3.196 1.049.435 2.347.438 3.659.013l4.755-1.545.618 1.902-4.755 1.545c-1.115.362-4.644 1.889-3.209 6.301l.455 1.399 2.226.652 1.308 1.914H13c4.639 0 5-3.827 5-5v-5h2v5c.001 1.173.364 4.999 4.999 4.999h1.475l1.308-1.914 2.226-.652.454-1.4c1.406-4.33-1.966-5.88-3.146-6.278l-.064-.021-4.756-1.545.619-1.902.011.004 4.744 1.54.067.022c1.29.404 2.561.394 3.592-.034 1.229-.51 2.118-1.585 2.642-3.198l.454-1.4-1.417-1.836.067-2.317-1.192-.866c-3.753-2.726-6.293.158-6.983 1.108l-2.938 4.043-1.618-1.175.02-.026 2.92-4.02c.81-1.115 1.207-2.352 1.117-3.483-.104-1.326-.853-2.504-2.225-3.5l-1.19-.865L19 5.062l-2.183-.78-1.19.865c-3.752 2.727-1.795 6.036-1.106 6.985l2.939 4.044-1.618 1.176-2.939-4.044c-1.897-2.613-2.629-6.742 1.549-9.778l2.045-1.486L19 2.938l2.506-.896 2.044 1.486c2.325 1.689 2.938 3.63 3.043 4.961.028.354.023.714-.011 1.076 1.869-.823 4.187-.791 6.676 1.017l2.046 1.486-.077 2.659 1.626 2.106zM19 18.727a1.273 1.273 0 1 0 0 2.546 1.273 1.273 0 0 0 0-2.546zM20.101 12a1.1 1.1 0 1 1-2.202-.002 1.1 1.1 0 0 1 2.202.002zm4.492 13.826a1.101 1.101 0 1 1-1.78 1.29 1.101 1.101 0 0 1 1.78-1.29zm-12.862-9.345a1.1 1.1 0 1 1-.682 2.094 1.1 1.1 0 0 1 .682-2.094zm14.538.001a1.101 1.101 0 1 1 .679 2.095 1.101 1.101 0 0 1-.679-2.095zm-12.862 9.344a1.101 1.101 0 0 1 1.781 1.293 1.1 1.1 0 0 1-1.781-1.293z"/>
</svg>
